<svg xmlns="http://www.w3.org/2000/svg" width="769" height="901" fill="none"><g opacity=".5" style="mix-blend-mode:plus-lighter"><g filter="url(#a)"><g filter="url(#b)" opacity=".8"><path fill="url(#c)" d="m175.973 128.721-18.737 10.232 195.043 320.038L490.59 673.885 371.016 448.76 175.973 128.721z"/></g><g filter="url(#d)" opacity=".8"><path fill="url(#e)" d="m240.1 80.43-18.737 10.23L416.406 410.7l138.311 214.894-119.574-225.125L240.1 80.429z"/></g><g filter="url(#f)" opacity=".8" style="mix-blend-mode:soft-light"><path fill="url(#g)" d="M98.572 95.287 79.836 105.52l195.043 320.039L413.19 640.452 293.615 415.326 98.572 95.287z"/></g><g filter="url(#h)" opacity=".2" style="mix-blend-mode:plus-lighter"><path fill="url(#i)" d="m221.402 134.682-18.736 10.231 195.043 320.039L536.02 679.846 416.445 454.721 221.402 134.682z"/></g><g filter="url(#j)" opacity=".8"><path fill="url(#k)" d="m175.973 128.721-18.737 10.232 195.043 320.038L490.59 673.885 371.016 448.76 175.973 128.721z"/></g><g filter="url(#l)" opacity=".8"><path fill="url(#m)" d="m240.1 80.43-18.737 10.23L416.406 410.7l138.311 214.894-119.574-225.125L240.1 80.429z"/></g><g filter="url(#n)" opacity=".8" style="mix-blend-mode:soft-light"><path fill="url(#o)" d="M98.572 95.287 79.836 105.52l195.043 320.039L413.19 640.452 293.615 415.326 98.572 95.287z"/></g><g filter="url(#p)" opacity=".2" style="mix-blend-mode:plus-lighter"><path fill="url(#q)" d="m221.402 134.682-18.736 10.231 195.043 320.039L536.02 679.846 416.445 454.721 221.402 134.682z"/></g><g filter="url(#r)" opacity=".8"><path fill="url(#s)" d="m175.973 128.721-18.737 10.232 195.043 320.038L490.59 673.885 371.016 448.76 175.973 128.721z"/></g><g filter="url(#t)" opacity=".8"><path fill="url(#u)" d="m240.1 80.43-18.737 10.23L416.406 410.7l138.311 214.894-119.574-225.125L240.1 80.429z"/></g><g filter="url(#v)" opacity=".8" style="mix-blend-mode:soft-light"><path fill="url(#w)" d="M98.572 95.287 79.836 105.52l195.043 320.039L413.19 640.452 293.615 415.326 98.572 95.287z"/></g><g filter="url(#x)" opacity=".2" style="mix-blend-mode:plus-lighter"><path fill="url(#y)" d="m221.402 134.682-18.736 10.231 195.043 320.039L536.02 679.846 416.445 454.721 221.402 134.682z"/></g><g filter="url(#z)" opacity=".8"><path fill="url(#A)" d="m175.971 128.721-18.737 10.232 195.043 320.038 138.311 214.894L371.014 448.76 175.971 128.721z"/></g><g filter="url(#B)" opacity=".8"><path fill="url(#C)" d="M248.844 89.357 230.107 99.59 425.15 419.628l138.311 214.894-119.574-225.126L248.844 89.357z"/></g><g filter="url(#D)" opacity=".8" style="mix-blend-mode:soft-light"><path fill="url(#E)" d="M98.57 95.287 79.834 105.52l195.043 320.039 138.311 214.894-119.575-225.126L98.57 95.287z"/></g><g filter="url(#F)" opacity=".2" style="mix-blend-mode:plus-lighter"><path fill="url(#G)" d="m159.133 120.936-18.737 10.231 195.043 320.039L473.75 666.1 354.176 440.974 159.133 120.936z"/></g><g filter="url(#H)" opacity=".2" style="mix-blend-mode:plus-lighter"><path fill="url(#I)" d="m268.338 231.105-18.737 10.232 195.043 320.039L582.956 776.27 463.381 551.144 268.338 231.105z"/></g></g><g filter="url(#J)" opacity=".8"><path fill="url(#K)" d="m175.973 128.721-18.737 10.232 195.043 320.038L490.59 673.885 371.016 448.76 175.973 128.721z"/></g><g filter="url(#L)" opacity=".8"><path fill="url(#M)" d="m240.1 80.43-18.737 10.23L416.406 410.7l138.311 214.894-119.574-225.125L240.1 80.429z"/></g><g filter="url(#N)" opacity=".8" style="mix-blend-mode:soft-light"><path fill="url(#O)" d="M98.572 95.287 79.836 105.52l195.043 320.039L413.19 640.452 293.615 415.326 98.572 95.287z"/></g><g filter="url(#P)" opacity=".2" style="mix-blend-mode:plus-lighter"><path fill="url(#Q)" d="m221.402 134.682-18.736 10.231 195.043 320.039L536.02 679.846 416.445 454.721 221.402 134.682z"/></g><g filter="url(#R)" opacity=".8"><path fill="url(#S)" d="m175.973 128.721-18.737 10.232 195.043 320.038L490.59 673.885 371.016 448.76 175.973 128.721z"/></g><g filter="url(#T)" opacity=".8"><path fill="url(#U)" d="m240.1 80.43-18.737 10.23L416.406 410.7l138.311 214.894-119.574-225.125L240.1 80.429z"/></g><g filter="url(#V)" opacity=".8" style="mix-blend-mode:soft-light"><path fill="url(#W)" d="M98.572 95.287 79.836 105.52l195.043 320.039L413.19 640.452 293.615 415.326 98.572 95.287z"/></g><g filter="url(#X)" opacity=".2" style="mix-blend-mode:plus-lighter"><path fill="url(#Y)" d="m221.402 134.682-18.736 10.231 195.043 320.039L536.02 679.846 416.445 454.721 221.402 134.682z"/></g><g filter="url(#Z)" opacity=".8"><path fill="url(#aa)" d="m175.973 128.721-18.737 10.232 195.043 320.038L490.59 673.885 371.016 448.76 175.973 128.721z"/></g><g filter="url(#ab)" opacity=".8"><path fill="url(#ac)" d="m240.1 80.43-18.737 10.23L416.406 410.7l138.311 214.894-119.574-225.125L240.1 80.429z"/></g><g filter="url(#ad)" opacity=".8" style="mix-blend-mode:soft-light"><path fill="url(#ae)" d="M98.572 95.287 79.836 105.52l195.043 320.039L413.19 640.452 293.615 415.326 98.572 95.287z"/></g><g filter="url(#af)" opacity=".2" style="mix-blend-mode:plus-lighter"><path fill="url(#ag)" d="m221.402 134.682-18.736 10.231 195.043 320.039L536.02 679.846 416.445 454.721 221.402 134.682z"/></g><g filter="url(#ah)" opacity=".8"><path fill="url(#ai)" d="m175.971 128.721-18.737 10.232 195.043 320.038 138.311 214.894L371.014 448.76 175.971 128.721z"/></g><g filter="url(#aj)" opacity=".8"><path fill="url(#ak)" d="m205.35 113.311-18.737 10.231 195.043 320.039 138.311 214.894L400.393 433.35 205.35 113.311z"/></g><g filter="url(#al)" opacity=".8"><path fill="url(#am)" d="M248.844 89.357 230.107 99.59 425.15 419.628l138.311 214.894-119.574-225.126L248.844 89.357z"/></g><g filter="url(#an)" opacity=".8" style="mix-blend-mode:soft-light"><path fill="url(#ao)" d="M98.57 95.287 79.834 105.52l195.043 320.039 138.311 214.894-119.575-225.126L98.57 95.287z"/></g><g filter="url(#ap)" opacity=".2" style="mix-blend-mode:plus-lighter"><path fill="url(#aq)" d="m159.133 120.936-18.737 10.231 195.043 320.039L473.75 666.1 354.176 440.974 159.133 120.936z"/></g><g filter="url(#ar)" opacity=".2" style="mix-blend-mode:plus-lighter"><path fill="url(#as)" d="m268.338 231.105-18.737 10.232 195.043 320.039L582.956 776.27 463.381 551.144 268.338 231.105z"/></g></g><defs><filter id="a" width="662.011" height="854.73" x=".389" y=".985" color-interpolation-filters="sRGB" filterUnits="userSpaceOnUse"><feFlood flood-opacity="0" result="BackgroundImageFix"/><feBlend in="SourceGraphic" in2="BackgroundImageFix" result="shape"/><feGaussianBlur result="effect1_foregroundBlur_938_25707" stdDeviation="39.722"/></filter><filter id="b" width="470.176" height="681.986" x="88.825" y="60.31" color-interpolation-filters="sRGB" filterUnits="userSpaceOnUse"><feFlood flood-opacity="0" result="BackgroundImageFix"/><feBlend in="SourceGraphic" in2="BackgroundImageFix" result="shape"/><feGaussianBlur result="effect1_foregroundBlur_938_25707" stdDeviation="34.206"/></filter><filter id="d" width="470.176" height="681.986" x="152.952" y="12.019" color-interpolation-filters="sRGB" filterUnits="userSpaceOnUse"><feFlood flood-opacity="0" result="BackgroundImageFix"/><feBlend in="SourceGraphic" in2="BackgroundImageFix" result="shape"/><feGaussianBlur result="effect1_foregroundBlur_938_25707" stdDeviation="34.206"/></filter><filter id="f" width="470.176" height="681.986" x="11.425" y="26.876" color-interpolation-filters="sRGB" filterUnits="userSpaceOnUse"><feFlood flood-opacity="0" result="BackgroundImageFix"/><feBlend in="SourceGraphic" in2="BackgroundImageFix" result="shape"/><feGaussianBlur result="effect1_foregroundBlur_938_25707" stdDeviation="34.206"/></filter><filter id="h" width="411.192" height="623.002" x="163.747" y="95.763" color-interpolation-filters="sRGB" filterUnits="userSpaceOnUse"><feFlood flood-opacity="0" result="BackgroundImageFix"/><feBlend in="SourceGraphic" in2="BackgroundImageFix" result="shape"/><feGaussianBlur result="effect1_foregroundBlur_938_25707" stdDeviation="19.46"/></filter><filter id="j" width="470.176" height="681.986" x="88.825" y="60.31" color-interpolation-filters="sRGB" filterUnits="userSpaceOnUse"><feFlood flood-opacity="0" result="BackgroundImageFix"/><feBlend in="SourceGraphic" in2="BackgroundImageFix" result="shape"/><feGaussianBlur result="effect1_foregroundBlur_938_25707" stdDeviation="34.206"/></filter><filter id="l" width="470.176" height="681.986" x="152.952" y="12.019" color-interpolation-filters="sRGB" filterUnits="userSpaceOnUse"><feFlood flood-opacity="0" result="BackgroundImageFix"/><feBlend in="SourceGraphic" in2="BackgroundImageFix" result="shape"/><feGaussianBlur result="effect1_foregroundBlur_938_25707" stdDeviation="34.206"/></filter><filter id="n" width="470.176" height="681.986" x="11.425" y="26.876" color-interpolation-filters="sRGB" filterUnits="userSpaceOnUse"><feFlood flood-opacity="0" result="BackgroundImageFix"/><feBlend in="SourceGraphic" in2="BackgroundImageFix" result="shape"/><feGaussianBlur result="effect1_foregroundBlur_938_25707" stdDeviation="34.206"/></filter><filter id="p" width="411.192" height="623.002" x="163.747" y="95.763" color-interpolation-filters="sRGB" filterUnits="userSpaceOnUse"><feFlood flood-opacity="0" result="BackgroundImageFix"/><feBlend in="SourceGraphic" in2="BackgroundImageFix" result="shape"/><feGaussianBlur result="effect1_foregroundBlur_938_25707" stdDeviation="19.46"/></filter><filter id="r" width="470.176" height="681.986" x="88.825" y="60.31" color-interpolation-filters="sRGB" filterUnits="userSpaceOnUse"><feFlood flood-opacity="0" result="BackgroundImageFix"/><feBlend in="SourceGraphic" in2="BackgroundImageFix" result="shape"/><feGaussianBlur result="effect1_foregroundBlur_938_25707" stdDeviation="34.206"/></filter><filter id="t" width="470.176" height="681.986" x="152.952" y="12.019" color-interpolation-filters="sRGB" filterUnits="userSpaceOnUse"><feFlood flood-opacity="0" result="BackgroundImageFix"/><feBlend in="SourceGraphic" in2="BackgroundImageFix" result="shape"/><feGaussianBlur result="effect1_foregroundBlur_938_25707" stdDeviation="34.206"/></filter><filter id="v" width="470.176" height="681.986" x="11.425" y="26.876" color-interpolation-filters="sRGB" filterUnits="userSpaceOnUse"><feFlood flood-opacity="0" result="BackgroundImageFix"/><feBlend in="SourceGraphic" in2="BackgroundImageFix" result="shape"/><feGaussianBlur result="effect1_foregroundBlur_938_25707" stdDeviation="34.206"/></filter><filter id="x" width="411.192" height="623.002" x="163.747" y="95.763" color-interpolation-filters="sRGB" filterUnits="userSpaceOnUse"><feFlood flood-opacity="0" result="BackgroundImageFix"/><feBlend in="SourceGraphic" in2="BackgroundImageFix" result="shape"/><feGaussianBlur result="effect1_foregroundBlur_938_25707" stdDeviation="19.46"/></filter><filter id="z" width="470.176" height="681.986" x="88.823" y="60.31" color-interpolation-filters="sRGB" filterUnits="userSpaceOnUse"><feFlood flood-opacity="0" result="BackgroundImageFix"/><feBlend in="SourceGraphic" in2="BackgroundImageFix" result="shape"/><feGaussianBlur result="effect1_foregroundBlur_938_25707" stdDeviation="34.206"/></filter><filter id="B" width="470.176" height="681.986" x="161.696" y="20.946" color-interpolation-filters="sRGB" filterUnits="userSpaceOnUse"><feFlood flood-opacity="0" result="BackgroundImageFix"/><feBlend in="SourceGraphic" in2="BackgroundImageFix" result="shape"/><feGaussianBlur result="effect1_foregroundBlur_938_25707" stdDeviation="34.206"/></filter><filter id="D" width="470.176" height="681.986" x="11.423" y="26.876" color-interpolation-filters="sRGB" filterUnits="userSpaceOnUse"><feFlood flood-opacity="0" result="BackgroundImageFix"/><feBlend in="SourceGraphic" in2="BackgroundImageFix" result="shape"/><feGaussianBlur result="effect1_foregroundBlur_938_25707" stdDeviation="34.206"/></filter><filter id="F" width="411.192" height="623.002" x="101.477" y="82.016" color-interpolation-filters="sRGB" filterUnits="userSpaceOnUse"><feFlood flood-opacity="0" result="BackgroundImageFix"/><feBlend in="SourceGraphic" in2="BackgroundImageFix" result="shape"/><feGaussianBlur result="effect1_foregroundBlur_938_25707" stdDeviation="19.46"/></filter><filter id="H" width="411.192" height="623.002" x="210.682" y="192.186" color-interpolation-filters="sRGB" filterUnits="userSpaceOnUse"><feFlood flood-opacity="0" result="BackgroundImageFix"/><feBlend in="SourceGraphic" in2="BackgroundImageFix" result="shape"/><feGaussianBlur result="effect1_foregroundBlur_938_25707" stdDeviation="19.46"/></filter><filter id="J" width="470.176" height="681.986" x="88.825" y="60.31" color-interpolation-filters="sRGB" filterUnits="userSpaceOnUse"><feFlood flood-opacity="0" result="BackgroundImageFix"/><feBlend in="SourceGraphic" in2="BackgroundImageFix" result="shape"/><feGaussianBlur result="effect1_foregroundBlur_938_25707" stdDeviation="34.206"/></filter><filter id="L" width="470.176" height="681.986" x="152.952" y="12.019" color-interpolation-filters="sRGB" filterUnits="userSpaceOnUse"><feFlood flood-opacity="0" result="BackgroundImageFix"/><feBlend in="SourceGraphic" in2="BackgroundImageFix" result="shape"/><feGaussianBlur result="effect1_foregroundBlur_938_25707" stdDeviation="34.206"/></filter><filter id="N" width="470.176" height="681.986" x="11.425" y="26.876" color-interpolation-filters="sRGB" filterUnits="userSpaceOnUse"><feFlood flood-opacity="0" result="BackgroundImageFix"/><feBlend in="SourceGraphic" in2="BackgroundImageFix" result="shape"/><feGaussianBlur result="effect1_foregroundBlur_938_25707" stdDeviation="34.206"/></filter><filter id="P" width="411.192" height="623.002" x="163.747" y="95.763" color-interpolation-filters="sRGB" filterUnits="userSpaceOnUse"><feFlood flood-opacity="0" result="BackgroundImageFix"/><feBlend in="SourceGraphic" in2="BackgroundImageFix" result="shape"/><feGaussianBlur result="effect1_foregroundBlur_938_25707" stdDeviation="19.46"/></filter><filter id="R" width="470.176" height="681.986" x="88.825" y="60.31" color-interpolation-filters="sRGB" filterUnits="userSpaceOnUse"><feFlood flood-opacity="0" result="BackgroundImageFix"/><feBlend in="SourceGraphic" in2="BackgroundImageFix" result="shape"/><feGaussianBlur result="effect1_foregroundBlur_938_25707" stdDeviation="34.206"/></filter><filter id="T" width="470.176" height="681.986" x="152.952" y="12.019" color-interpolation-filters="sRGB" filterUnits="userSpaceOnUse"><feFlood flood-opacity="0" result="BackgroundImageFix"/><feBlend in="SourceGraphic" in2="BackgroundImageFix" result="shape"/><feGaussianBlur result="effect1_foregroundBlur_938_25707" stdDeviation="34.206"/></filter><filter id="V" width="470.176" height="681.986" x="11.425" y="26.876" color-interpolation-filters="sRGB" filterUnits="userSpaceOnUse"><feFlood flood-opacity="0" result="BackgroundImageFix"/><feBlend in="SourceGraphic" in2="BackgroundImageFix" result="shape"/><feGaussianBlur result="effect1_foregroundBlur_938_25707" stdDeviation="34.206"/></filter><filter id="X" width="411.192" height="623.002" x="163.747" y="95.763" color-interpolation-filters="sRGB" filterUnits="userSpaceOnUse"><feFlood flood-opacity="0" result="BackgroundImageFix"/><feBlend in="SourceGraphic" in2="BackgroundImageFix" result="shape"/><feGaussianBlur result="effect1_foregroundBlur_938_25707" stdDeviation="19.46"/></filter><filter id="Z" width="470.176" height="681.986" x="88.825" y="60.31" color-interpolation-filters="sRGB" filterUnits="userSpaceOnUse"><feFlood flood-opacity="0" result="BackgroundImageFix"/><feBlend in="SourceGraphic" in2="BackgroundImageFix" result="shape"/><feGaussianBlur result="effect1_foregroundBlur_938_25707" stdDeviation="34.206"/></filter><filter id="ab" width="470.176" height="681.986" x="152.952" y="12.019" color-interpolation-filters="sRGB" filterUnits="userSpaceOnUse"><feFlood flood-opacity="0" result="BackgroundImageFix"/><feBlend in="SourceGraphic" in2="BackgroundImageFix" result="shape"/><feGaussianBlur result="effect1_foregroundBlur_938_25707" stdDeviation="34.206"/></filter><filter id="ad" width="470.176" height="681.986" x="11.425" y="26.876" color-interpolation-filters="sRGB" filterUnits="userSpaceOnUse"><feFlood flood-opacity="0" result="BackgroundImageFix"/><feBlend in="SourceGraphic" in2="BackgroundImageFix" result="shape"/><feGaussianBlur result="effect1_foregroundBlur_938_25707" stdDeviation="34.206"/></filter><filter id="af" width="411.192" height="623.002" x="163.747" y="95.763" color-interpolation-filters="sRGB" filterUnits="userSpaceOnUse"><feFlood flood-opacity="0" result="BackgroundImageFix"/><feBlend in="SourceGraphic" in2="BackgroundImageFix" result="shape"/><feGaussianBlur result="effect1_foregroundBlur_938_25707" stdDeviation="19.46"/></filter><filter id="ah" width="470.176" height="681.986" x="88.823" y="60.31" color-interpolation-filters="sRGB" filterUnits="userSpaceOnUse"><feFlood flood-opacity="0" result="BackgroundImageFix"/><feBlend in="SourceGraphic" in2="BackgroundImageFix" result="shape"/><feGaussianBlur result="effect1_foregroundBlur_938_25707" stdDeviation="34.206"/></filter><filter id="aj" width="470.176" height="681.986" x="118.202" y="44.9" color-interpolation-filters="sRGB" filterUnits="userSpaceOnUse"><feFlood flood-opacity="0" result="BackgroundImageFix"/><feBlend in="SourceGraphic" in2="BackgroundImageFix" result="shape"/><feGaussianBlur result="effect1_foregroundBlur_938_25707" stdDeviation="34.206"/></filter><filter id="al" width="470.176" height="681.986" x="161.696" y="20.946" color-interpolation-filters="sRGB" filterUnits="userSpaceOnUse"><feFlood flood-opacity="0" result="BackgroundImageFix"/><feBlend in="SourceGraphic" in2="BackgroundImageFix" result="shape"/><feGaussianBlur result="effect1_foregroundBlur_938_25707" stdDeviation="34.206"/></filter><filter id="an" width="470.176" height="681.986" x="11.423" y="26.876" color-interpolation-filters="sRGB" filterUnits="userSpaceOnUse"><feFlood flood-opacity="0" result="BackgroundImageFix"/><feBlend in="SourceGraphic" in2="BackgroundImageFix" result="shape"/><feGaussianBlur result="effect1_foregroundBlur_938_25707" stdDeviation="34.206"/></filter><filter id="ap" width="411.192" height="623.002" x="101.477" y="82.016" color-interpolation-filters="sRGB" filterUnits="userSpaceOnUse"><feFlood flood-opacity="0" result="BackgroundImageFix"/><feBlend in="SourceGraphic" in2="BackgroundImageFix" result="shape"/><feGaussianBlur result="effect1_foregroundBlur_938_25707" stdDeviation="19.46"/></filter><filter id="ar" width="411.192" height="623.002" x="210.682" y="192.186" color-interpolation-filters="sRGB" filterUnits="userSpaceOnUse"><feFlood flood-opacity="0" result="BackgroundImageFix"/><feBlend in="SourceGraphic" in2="BackgroundImageFix" result="shape"/><feGaussianBlur result="effect1_foregroundBlur_938_25707" stdDeviation="19.46"/></filter><linearGradient id="c" x1="166.604" x2="346.031" y1="133.837" y2="462.403" gradientUnits="userSpaceOnUse"><stop stop-color="#fff"/><stop offset="1" stop-color="#5C7EF5"/></linearGradient><linearGradient id="e" x1="230.731" x2="410.158" y1="85.546" y2="414.112" gradientUnits="userSpaceOnUse"><stop stop-color="#fff"/><stop offset="1" stop-color="#5C7EF5"/></linearGradient><linearGradient id="g" x1="89.204" x2="268.631" y1="100.403" y2="428.97" gradientUnits="userSpaceOnUse"><stop stop-color="#fff"/><stop offset="1" stop-color="#5C7EF5"/></linearGradient><linearGradient id="i" x1="212.034" x2="391.461" y1="139.798" y2="468.364" gradientUnits="userSpaceOnUse"><stop stop-color="#fff"/><stop offset="1" stop-color="#fff"/></linearGradient><linearGradient id="k" x1="166.604" x2="346.031" y1="133.837" y2="462.403" gradientUnits="userSpaceOnUse"><stop stop-color="#fff"/><stop offset="1" stop-color="#5C7EF5"/></linearGradient><linearGradient id="m" x1="230.731" x2="410.158" y1="85.546" y2="414.112" gradientUnits="userSpaceOnUse"><stop stop-color="#fff"/><stop offset="1" stop-color="#5C7EF5"/></linearGradient><linearGradient id="o" x1="89.204" x2="268.631" y1="100.403" y2="428.97" gradientUnits="userSpaceOnUse"><stop stop-color="#fff"/><stop offset="1" stop-color="#5C7EF5"/></linearGradient><linearGradient id="q" x1="212.034" x2="391.461" y1="139.798" y2="468.364" gradientUnits="userSpaceOnUse"><stop stop-color="#fff"/><stop offset="1" stop-color="#fff"/></linearGradient><linearGradient id="s" x1="166.604" x2="346.031" y1="133.837" y2="462.403" gradientUnits="userSpaceOnUse"><stop stop-color="#fff"/><stop offset="1" stop-color="#5C7EF5"/></linearGradient><linearGradient id="u" x1="230.731" x2="410.158" y1="85.546" y2="414.112" gradientUnits="userSpaceOnUse"><stop stop-color="#fff"/><stop offset="1" stop-color="#5C7EF5"/></linearGradient><linearGradient id="w" x1="89.204" x2="268.631" y1="100.403" y2="428.97" gradientUnits="userSpaceOnUse"><stop stop-color="#fff"/><stop offset="1" stop-color="#5C7EF5"/></linearGradient><linearGradient id="y" x1="212.034" x2="391.461" y1="139.798" y2="468.364" gradientUnits="userSpaceOnUse"><stop stop-color="#fff"/><stop offset="1" stop-color="#fff"/></linearGradient><linearGradient id="A" x1="166.602" x2="346.029" y1="133.837" y2="462.403" gradientUnits="userSpaceOnUse"><stop stop-color="#fff"/><stop offset=".557" stop-color="#00CBFF"/><stop offset="1" stop-color="#501BE5"/></linearGradient><linearGradient id="C" x1="239.475" x2="418.903" y1="94.473" y2="423.04" gradientUnits="userSpaceOnUse"><stop stop-color="#fff"/><stop offset="1" stop-color="#5C7EF5"/></linearGradient><linearGradient id="E" x1="89.202" x2="268.629" y1="100.403" y2="428.97" gradientUnits="userSpaceOnUse"><stop stop-color="#fff"/><stop offset=".557" stop-color="#00CBFF"/><stop offset="1" stop-color="#501BE5"/></linearGradient><linearGradient id="G" x1="149.765" x2="329.192" y1="126.051" y2="454.618" gradientUnits="userSpaceOnUse"><stop stop-color="#fff"/><stop offset="1" stop-color="#fff"/></linearGradient><linearGradient id="I" x1="258.97" x2="438.397" y1="236.221" y2="564.788" gradientUnits="userSpaceOnUse"><stop stop-color="#fff"/><stop offset="1" stop-color="#fff"/></linearGradient><linearGradient id="K" x1="166.604" x2="346.031" y1="133.837" y2="462.403" gradientUnits="userSpaceOnUse"><stop stop-color="#fff"/><stop offset="1" stop-color="#5C7EF5"/></linearGradient><linearGradient id="M" x1="230.731" x2="410.158" y1="85.546" y2="414.112" gradientUnits="userSpaceOnUse"><stop stop-color="#fff"/><stop offset="1" stop-color="#5C7EF5"/></linearGradient><linearGradient id="O" x1="89.204" x2="268.631" y1="100.403" y2="428.97" gradientUnits="userSpaceOnUse"><stop stop-color="#fff"/><stop offset="1" stop-color="#5C7EF5"/></linearGradient><linearGradient id="Q" x1="212.034" x2="391.461" y1="139.798" y2="468.364" gradientUnits="userSpaceOnUse"><stop stop-color="#fff"/><stop offset="1" stop-color="#fff"/></linearGradient><linearGradient id="S" x1="166.604" x2="346.031" y1="133.837" y2="462.403" gradientUnits="userSpaceOnUse"><stop stop-color="#fff"/><stop offset="1" stop-color="#5C7EF5"/></linearGradient><linearGradient id="U" x1="230.731" x2="410.158" y1="85.546" y2="414.112" gradientUnits="userSpaceOnUse"><stop stop-color="#fff"/><stop offset="1" stop-color="#5C7EF5"/></linearGradient><linearGradient id="W" x1="89.204" x2="268.631" y1="100.403" y2="428.97" gradientUnits="userSpaceOnUse"><stop stop-color="#fff"/><stop offset="1" stop-color="#5C7EF5"/></linearGradient><linearGradient id="Y" x1="212.034" x2="391.461" y1="139.798" y2="468.364" gradientUnits="userSpaceOnUse"><stop stop-color="#fff"/><stop offset="1" stop-color="#fff"/></linearGradient><linearGradient id="aa" x1="166.604" x2="346.031" y1="133.837" y2="462.403" gradientUnits="userSpaceOnUse"><stop stop-color="#fff"/><stop offset="1" stop-color="#5C7EF5"/></linearGradient><linearGradient id="ac" x1="230.731" x2="410.158" y1="85.546" y2="414.112" gradientUnits="userSpaceOnUse"><stop stop-color="#fff"/><stop offset="1" stop-color="#5C7EF5"/></linearGradient><linearGradient id="ae" x1="89.204" x2="268.631" y1="100.403" y2="428.97" gradientUnits="userSpaceOnUse"><stop stop-color="#fff"/><stop offset="1" stop-color="#5C7EF5"/></linearGradient><linearGradient id="ag" x1="212.034" x2="391.461" y1="139.798" y2="468.364" gradientUnits="userSpaceOnUse"><stop stop-color="#fff"/><stop offset="1" stop-color="#fff"/></linearGradient><linearGradient id="ai" x1="166.602" x2="346.029" y1="133.837" y2="462.403" gradientUnits="userSpaceOnUse"><stop stop-color="#fff"/><stop offset=".557" stop-color="#00CBFF"/><stop offset="1" stop-color="#501BE5"/></linearGradient><linearGradient id="ak" x1="195.981" x2="375.408" y1="118.426" y2="446.993" gradientUnits="userSpaceOnUse"><stop stop-color="#fff"/><stop offset=".557" stop-color="#00CBFF"/><stop offset="1" stop-color="#501BE5"/></linearGradient><linearGradient id="am" x1="239.475" x2="418.903" y1="94.473" y2="423.04" gradientUnits="userSpaceOnUse"><stop stop-color="#fff"/><stop offset="1" stop-color="#5C7EF5"/></linearGradient><linearGradient id="ao" x1="89.202" x2="268.629" y1="100.403" y2="428.97" gradientUnits="userSpaceOnUse"><stop stop-color="#fff"/><stop offset=".557" stop-color="#00CBFF"/><stop offset="1" stop-color="#501BE5"/></linearGradient><linearGradient id="aq" x1="149.765" x2="329.192" y1="126.051" y2="454.618" gradientUnits="userSpaceOnUse"><stop stop-color="#fff"/><stop offset="1" stop-color="#fff"/></linearGradient><linearGradient id="as" x1="258.97" x2="438.397" y1="236.221" y2="564.788" gradientUnits="userSpaceOnUse"><stop stop-color="#fff"/><stop offset="1" stop-color="#fff"/></linearGradient></defs></svg>